<svg width="456" height="456" viewBox="0 0 456 456" fill="none" xmlns="http://www.w3.org/2000/svg">
<path fill-rule="evenodd" clip-rule="evenodd" d="M203 138.667C203 132.036 205.634 125.677 210.323 120.989C215.011 116.301 221.37 113.667 228 113.667C234.631 113.667 240.99 116.301 245.678 120.989C250.367 125.677 253 132.036 253 138.667H203ZM186.334 138.667C186.334 127.616 190.724 117.018 198.538 109.204C206.352 101.39 216.95 97 228 97C239.051 97 249.649 101.39 257.463 109.204C265.277 117.018 269.667 127.616 269.667 138.667H294.667C295.825 138.667 296.97 138.908 298.029 139.375C299.088 139.842 300.039 140.524 300.82 141.379C301.6 142.233 302.195 143.241 302.564 144.338C302.934 145.435 303.071 146.597 302.967 147.75L296.009 224.267C295.443 230.478 292.576 236.254 287.971 240.46C283.366 244.666 277.354 246.999 271.117 247H184.884C178.647 246.999 172.635 244.666 168.03 240.46C163.425 236.254 160.558 230.478 159.992 224.267L153.034 147.75C152.93 146.597 153.067 145.435 153.437 144.338C153.806 143.241 154.401 142.233 155.181 141.379C155.962 140.524 156.913 139.842 157.972 139.375C159.031 138.908 160.176 138.667 161.334 138.667H186.334Z" fill="white"/>
<path d="M101.937 352L89.2109 306.909H97.9957L106.12 340.045H106.538L115.213 306.909H123.205L131.902 340.067H132.298L140.423 306.909H149.207L136.482 352H128.423L119.396 320.362H119.044L109.995 352H101.937ZM154.519 352V318.182H162.489V352H154.519ZM158.526 313.382C157.264 313.382 156.178 312.964 155.268 312.127C154.358 311.276 153.903 310.256 153.903 309.067C153.903 307.863 154.358 306.843 155.268 306.006C156.178 305.155 157.264 304.729 158.526 304.729C159.803 304.729 160.889 305.155 161.785 306.006C162.695 306.843 163.15 307.863 163.15 309.067C163.15 310.256 162.695 311.276 161.785 312.127C160.889 312.964 159.803 313.382 158.526 313.382ZM197.414 327.121L190.148 327.913C189.943 327.179 189.583 326.49 189.069 325.844C188.57 325.198 187.895 324.677 187.044 324.281C186.192 323.884 185.15 323.686 183.917 323.686C182.259 323.686 180.864 324.046 179.734 324.765C178.618 325.484 178.068 326.416 178.083 327.561C178.068 328.545 178.428 329.344 179.162 329.961C179.91 330.577 181.143 331.084 182.86 331.48L188.629 332.713C191.829 333.403 194.207 334.496 195.762 335.994C197.333 337.491 198.126 339.45 198.14 341.872C198.126 344 197.502 345.879 196.269 347.509C195.051 349.123 193.355 350.385 191.183 351.295C189.011 352.205 186.515 352.661 183.697 352.661C179.558 352.661 176.226 351.795 173.701 350.062C171.177 348.316 169.672 345.887 169.188 342.775L176.96 342.026C177.312 343.553 178.061 344.705 179.206 345.483C180.35 346.261 181.84 346.65 183.675 346.65C185.569 346.65 187.088 346.261 188.233 345.483C189.392 344.705 189.972 343.744 189.972 342.599C189.972 341.63 189.598 340.83 188.849 340.199C188.115 339.568 186.97 339.083 185.414 338.746L179.646 337.535C176.402 336.86 174.002 335.722 172.446 334.122C170.891 332.508 170.12 330.467 170.135 328.001C170.12 325.917 170.685 324.112 171.83 322.585C172.989 321.044 174.597 319.855 176.652 319.018C178.721 318.167 181.106 317.741 183.807 317.741C187.77 317.741 190.889 318.585 193.164 320.273C195.454 321.961 196.871 324.244 197.414 327.121ZM219.684 352.661C216.293 352.661 213.365 351.956 210.899 350.547C208.448 349.123 206.562 347.112 205.241 344.514C203.92 341.902 203.259 338.826 203.259 335.289C203.259 331.81 203.92 328.757 205.241 326.13C206.576 323.488 208.441 321.433 210.833 319.965C213.226 318.483 216.036 317.741 219.266 317.741C221.35 317.741 223.317 318.079 225.166 318.754C227.03 319.415 228.674 320.442 230.098 321.837C231.536 323.231 232.667 325.007 233.489 327.165C234.311 329.308 234.722 331.862 234.722 334.827V337.271H207.002V331.898H227.082C227.067 330.372 226.737 329.014 226.091 327.825C225.445 326.622 224.542 325.675 223.383 324.985C222.238 324.295 220.902 323.95 219.376 323.95C217.746 323.95 216.315 324.347 215.082 325.139C213.849 325.917 212.888 326.945 212.198 328.222C211.523 329.484 211.178 330.871 211.163 332.383V337.072C211.163 339.039 211.523 340.727 212.242 342.136C212.961 343.531 213.967 344.602 215.259 345.351C216.55 346.085 218.062 346.452 219.794 346.452C220.954 346.452 222.003 346.29 222.942 345.967C223.882 345.63 224.696 345.138 225.386 344.492C226.076 343.846 226.597 343.046 226.95 342.092L234.391 342.929C233.922 344.896 233.026 346.613 231.705 348.081C230.399 349.534 228.726 350.664 226.685 351.472C224.645 352.264 222.311 352.661 219.684 352.661ZM241.817 352V306.909H259.078C262.336 306.909 265.045 307.423 267.202 308.45C269.375 309.463 270.997 310.85 272.068 312.612C273.154 314.373 273.697 316.369 273.697 318.6C273.697 320.435 273.345 322.005 272.64 323.312C271.936 324.603 270.989 325.653 269.8 326.46C268.611 327.268 267.283 327.847 265.815 328.2V328.64C267.415 328.728 268.949 329.22 270.417 330.115C271.899 330.996 273.11 332.243 274.05 333.858C274.989 335.473 275.459 337.425 275.459 339.714C275.459 342.048 274.894 344.147 273.763 346.011C272.633 347.861 270.93 349.321 268.655 350.393C266.38 351.464 263.518 352 260.069 352H241.817ZM249.985 345.175H258.77C261.735 345.175 263.87 344.61 265.177 343.479C266.498 342.335 267.158 340.867 267.158 339.076C267.158 337.74 266.828 336.537 266.167 335.465C265.507 334.379 264.568 333.528 263.349 332.911C262.131 332.28 260.678 331.964 258.99 331.964H249.985V345.175ZM249.985 326.086H258.065C259.474 326.086 260.744 325.829 261.874 325.315C263.004 324.787 263.892 324.046 264.538 323.092C265.199 322.123 265.529 320.978 265.529 319.657C265.529 317.91 264.912 316.472 263.68 315.342C262.461 314.211 260.648 313.646 258.241 313.646H249.985V326.086ZM303.767 337.777V318.182H311.737V352H304.009V345.989H303.657C302.894 347.883 301.639 349.431 299.892 350.635C298.16 351.839 296.024 352.44 293.485 352.44C291.269 352.44 289.309 351.949 287.607 350.965C285.919 349.967 284.598 348.521 283.643 346.628C282.689 344.72 282.212 342.415 282.212 339.714V318.182H290.183V338.482C290.183 340.625 290.77 342.327 291.944 343.589C293.118 344.852 294.659 345.483 296.567 345.483C297.742 345.483 298.879 345.197 299.98 344.624C301.081 344.052 301.984 343.201 302.688 342.07C303.407 340.925 303.767 339.494 303.767 337.777ZM324.887 364.682C323.801 364.682 322.795 364.594 321.871 364.418C320.961 364.256 320.234 364.065 319.691 363.845L321.54 357.636C322.7 357.974 323.735 358.135 324.645 358.121C325.555 358.106 326.355 357.82 327.045 357.262C327.749 356.719 328.344 355.809 328.828 354.532L329.51 352.705L317.247 318.182H325.702L333.496 343.722H333.848L341.664 318.182H350.14L336.6 356.095C335.969 357.886 335.132 359.42 334.09 360.697C333.048 361.988 331.771 362.972 330.259 363.647C328.762 364.337 326.971 364.682 324.887 364.682Z" fill="white"/>
</svg>
