<svg width="456" height="456" viewBox="0 0 456 456" fill="none" xmlns="http://www.w3.org/2000/svg">
<path fill-rule="evenodd" clip-rule="evenodd" d="M203 194.667C203 188.036 205.634 181.677 210.322 176.989C215.011 172.301 221.37 169.667 228 169.667C234.63 169.667 240.989 172.301 245.678 176.989C250.366 181.677 253 188.036 253 194.667H203ZM186.333 194.667C186.333 183.616 190.723 173.018 198.537 165.204C206.351 157.39 216.949 153 228 153C239.051 153 249.649 157.39 257.463 165.204C265.277 173.018 269.667 183.616 269.667 194.667H294.667C295.824 194.667 296.969 194.908 298.028 195.375C299.088 195.842 300.038 196.524 300.819 197.379C301.6 198.233 302.194 199.241 302.564 200.338C302.934 201.435 303.071 202.597 302.967 203.75L296.008 280.267C295.443 286.478 292.576 292.254 287.971 296.46C283.365 300.666 277.354 302.999 271.117 303H184.883C178.646 302.999 172.635 300.666 168.029 296.46C163.424 292.254 160.557 286.478 159.992 280.267L153.033 203.75C152.929 202.597 153.066 201.435 153.436 200.338C153.806 199.241 154.4 198.233 155.181 197.379C155.962 196.524 156.912 195.842 157.972 195.375C159.031 194.908 160.176 194.667 161.333 194.667H186.333Z" fill="white"/>
</svg>
